<svg xmlns="http://www.w3.org/2000/svg" id="outline" viewBox="0 0 512 512" width="512" height="512"><title>briefcase-bag-portfolio-suitcase-business</title><path d="M488,144H432V120a7.99977,7.99977,0,0,0-8-8H395.31348l-5.65674-5.65674A7.99877,7.99877,0,0,0,384,104H371.99976L357.99133,85.32214l7.66541-7.6654a7.99915,7.99915,0,0,0,0-11.31348l-8.40186-8.40185a143.19538,143.19538,0,0,0-202.50976,0l-8.40186,8.40185a7.99915,7.99915,0,0,0,0,11.31348l7.66541,7.6654L140.00024,104H128a7.99877,7.99877,0,0,0-5.65674,2.34326L116.68652,112H88a7.99977,7.99977,0,0,0-8,8v24H24a7.99977,7.99977,0,0,0-8,8V432a64.0727,64.0727,0,0,0,64,64H432a64.0727,64.0727,0,0,0,64-64V152A7.99977,7.99977,0,0,0,488,144ZM386.34326,125.65674A7.99877,7.99877,0,0,0,392,128h24v16H371.31348L360,132.68652V120h20.68652ZM166.05859,69.25488a127.19654,127.19654,0,0,1,179.88282,0L348.686,72,336,84.686l-6.05908-6.0586a104.568,104.568,0,0,0-147.88184,0L176,84.686,163.314,72ZM165.437,96.75043l4.90631,4.90631a8,8,0,0,0,11.31348,0l11.71582-11.71582a88.56909,88.56909,0,0,1,125.25488,0l11.71582,11.71582a7.99945,7.99945,0,0,0,11.31348,0l4.90625-4.90631L352.00024,104H352a7.99977,7.99977,0,0,0-8,8v24a7.99877,7.99877,0,0,0,2.34326,5.65674L348.68652,144h-185.373l2.34326-2.34326A7.99877,7.99877,0,0,0,168,136V112a7.99977,7.99977,0,0,0-8-8h-.00024ZM96,128h24a7.99877,7.99877,0,0,0,5.65674-2.34326L131.31348,120H152v12.68652L140.68652,144H96ZM480,432a48.05436,48.05436,0,0,1-48,48H80a48.05436,48.05436,0,0,1-48-48V290.26422a64.07986,64.07986,0,0,0,32,19.71051V424a32.036,32.036,0,0,0,32,32H416a32.036,32.036,0,0,0,32-32V309.97473a64.08012,64.08012,0,0,0,32-19.71051ZM200,264H152V232h48Zm-32,16v16a8,8,0,0,0,16,0V280h16v48H152V280Zm40,64v16H144V344Zm-56,32h48v8a24,24,0,0,1-48,0Zm-16-48a7.99977,7.99977,0,0,0-8,8v32a7.99977,7.99977,0,0,0,8,8v8a40,40,0,0,0,80,0v-8a7.99977,7.99977,0,0,0,8-8V336a7.99977,7.99977,0,0,0-8-8V312h80v16a7.99977,7.99977,0,0,0-8,8v32a7.99977,7.99977,0,0,0,8,8v8a40,40,0,0,0,80,0v-8a7.99977,7.99977,0,0,0,8-8V336a7.99977,7.99977,0,0,0-8-8V312h56V424a16.01833,16.01833,0,0,1-16,16H96a16.01833,16.01833,0,0,1-16-16V312h56Zm224-64H312V232h48Zm-32,16v16a8,8,0,0,0,16,0V280h16v48H312V280Zm40,64v16H304V344Zm-56,32h48v8a24,24,0,0,1-48,0ZM480,248a48.05436,48.05436,0,0,1-48,48H376V280a8,8,0,0,0,0-16V224a7.99977,7.99977,0,0,0-8-8H304a7.99977,7.99977,0,0,0-8,8v40a8,8,0,0,0,0,16v16H216V280a8,8,0,0,0,0-16V224a7.99977,7.99977,0,0,0-8-8H144a7.99977,7.99977,0,0,0-8,8v40a8,8,0,0,0,0,16v16H80a48.05436,48.05436,0,0,1-48-48V160H480Z"/></svg>