<svg xmlns="http://www.w3.org/2000/svg" viewBox="0 0 64 64" width="512" height="512"><g id="Programmer-Developer-Software-Development-Application"><path d="M42.82,60A3,3,0,0,0,43,59V56.95a5,5,0,0,0,5-5V45.74a11.017,11.017,0,0,0-5.46-9.49L37.67,33.4a.53.53,0,0,1-.06-.1A3.307,3.307,0,0,0,36,32.17V31.16A10.024,10.024,0,0,0,41.95,23h.55a3.5,3.5,0,0,0,0-7H42V11a5,5,0,0,0-5-5H27a5,5,0,0,0-5,5v5h-.5a3.5,3.5,0,0,0,0,7h.55A10.024,10.024,0,0,0,28,31.16v1.01a3.307,3.307,0,0,0-1.61,1.13.53.53,0,0,1-.06.1l-4.87,2.85A11.017,11.017,0,0,0,16,45.74v6.21a5,5,0,0,0,5,5V59a3,3,0,0,0,.18,1H2v2H62V60ZM42,18h.5a1.5,1.5,0,0,1,0,3H42ZM22,21h-.5a1.5,1.5,0,0,1,0-3H22ZM36.01,34.5a1.225,1.225,0,0,1,.2,1.11l-.77,2.72L33.4,36.8l2.04-2.72A1.187,1.187,0,0,1,36.01,34.5Zm-1.77,5.43c.04.03.09.04.14.07H29.62c.05-.03.1-.04.14-.07L32,38.25ZM30,32.67V31.8a10.1,10.1,0,0,0,4,0v.87l-2,2.66ZM24,11a3.009,3.009,0,0,1,3-3H37a3.009,3.009,0,0,1,3,3v4.22A2.986,2.986,0,0,1,39,13v-.76a1.98,1.98,0,0,0-.81-1.6,2.014,2.014,0,0,0-1.81-.29,15.365,15.365,0,0,1-8.76,0,2.014,2.014,0,0,0-1.81.29,1.98,1.98,0,0,0-.81,1.6V13a2.986,2.986,0,0,1-1,2.22Zm0,11V17.58A5.014,5.014,0,0,0,27,13l.01-.75A17.173,17.173,0,0,0,37,12.24V13a5.014,5.014,0,0,0,3,4.58V22a8,8,0,0,1-16,0Zm3.99,12.5a1.235,1.235,0,0,1,.57-.42L30.6,36.8l-2.04,1.53-.78-2.72A1.291,1.291,0,0,1,27.99,34.5ZM21,42v7H19v2h2v3.95a3.009,3.009,0,0,1-3-3V45.74a9.043,9.043,0,0,1,4.46-7.77L25.84,36c.01.05.01.11.02.16l.78,2.72A1.991,1.991,0,0,0,27.47,40H23A2.006,2.006,0,0,0,21,42ZM41,59a1,1,0,0,1-1,1H24a1,1,0,0,1-1-1V58H41Zm0-3H23V42H41Zm0-16H36.53a1.958,1.958,0,0,0,.83-1.12l.78-2.72c.01-.05.01-.1.02-.16l3.38,1.97A9.043,9.043,0,0,1,46,45.74v6.21a3.009,3.009,0,0,1-3,3V51h2V49H43V42A2.006,2.006,0,0,0,41,40Z"/><path d="M35.307,25.75l-1.323-1.5a3.076,3.076,0,0,1-3.968,0l-1.323,1.5a5,5,0,0,0,6.614,0Z"/><circle cx="28" cy="20" r="2"/><circle cx="36" cy="20" r="2"/><path d="M32,52a3,3,0,1,0-3-3A3,3,0,0,0,32,52Zm0-4a1,1,0,1,1-1,1A1,1,0,0,1,32,48Z"/><path d="M2.757,12.97l1.668.418c.071.194.15.386.238.574l-.884,1.473a1,1,0,0,0,.15,1.221l1.414,1.415a1,1,0,0,0,1.222.151l1.473-.884c.188.087.379.166.575.237l.417,1.667A1,1,0,0,0,10,20h2a1,1,0,0,0,.97-.758l.417-1.667c.2-.071.387-.15.575-.237l1.473.884a1,1,0,0,0,1.222-.151l1.414-1.415a1,1,0,0,0,.15-1.221l-.884-1.473c.088-.188.167-.38.238-.574l1.668-.418A1,1,0,0,0,20,12V10a1,1,0,0,0-.757-.97l-1.668-.418q-.106-.293-.238-.574l.884-1.474a1,1,0,0,0-.15-1.221L16.657,3.929a1,1,0,0,0-1.222-.151l-1.473.884c-.188-.087-.379-.166-.575-.237L12.97,2.758A1,1,0,0,0,12,2H10a1,1,0,0,0-.97.758L8.613,4.425c-.2.071-.387.15-.575.237L6.565,3.778a1,1,0,0,0-1.222.151L3.929,5.343a1,1,0,0,0-.15,1.221l.884,1.474q-.132.282-.238.574L2.757,9.03A1,1,0,0,0,2,10v2A1,1,0,0,0,2.757,12.97ZM4,10.78l1.453-.363a1,1,0,0,0,.723-.711,5,5,0,0,1,.5-1.2,1,1,0,0,0-.008-1.016L5.9,6.205l.309-.31,1.283.77A1,1,0,0,0,8.5,6.673a4.983,4.983,0,0,1,1.2-.5,1,1,0,0,0,.71-.724L10.781,4h.438l.364,1.452a1,1,0,0,0,.71.724,4.983,4.983,0,0,1,1.2.5,1,1,0,0,0,1.016-.008L15.8,5.9l.309.31-.769,1.283A1,1,0,0,0,15.327,8.5a5,5,0,0,1,.5,1.2,1,1,0,0,0,.723.711L18,10.78v.44l-1.453.363a1,1,0,0,0-.723.711,5,5,0,0,1-.5,1.2,1,1,0,0,0,.008,1.016L16.1,15.8l-.31.309-1.282-.769a1.006,1.006,0,0,0-1.016-.008,4.983,4.983,0,0,1-1.2.5,1,1,0,0,0-.71.724L11.219,18h-.438l-.364-1.452a1,1,0,0,0-.71-.724,4.983,4.983,0,0,1-1.2-.5,1,1,0,0,0-1.016.008L6.206,16.1,5.9,15.8l.769-1.283A1,1,0,0,0,6.673,13.5a5,5,0,0,1-.5-1.2,1,1,0,0,0-.723-.711L4,11.22Z"/><path d="M11,15a4,4,0,1,0-4-4A4,4,0,0,0,11,15Zm0-6a2,2,0,1,1-2,2A2,2,0,0,1,11,9Z"/><path d="M49.293,14.707l1.414-1.414L48.414,11l2.293-2.293L49.293,7.293l-3,3a1,1,0,0,0,0,1.414Z"/><path d="M58.707,14.707l3-3a1,1,0,0,0,0-1.414l-3-3L57.293,8.707,59.586,11l-2.293,2.293Z"/><rect x="49.877" y="10" width="8.246" height="1.999" transform="translate(30.243 60.725) rotate(-75.977)"/><path d="M46,30v2h5.184A2.993,2.993,0,1,0,55,28.184V22H53v6.184A3,3,0,0,0,51.184,30Zm8,0a1,1,0,1,1-1,1A1,1,0,0,1,54,30Z"/><path d="M9,22v6.184A2.993,2.993,0,1,0,12.816,32H18V30H12.816A3,3,0,0,0,11,28.184V22Zm1,10a1,1,0,1,1,1-1A1,1,0,0,1,10,32Z"/></g></svg>